<?xml version="1.0" encoding="UTF-8" standalone="no"?>
<!DOCTYPE svg PUBLIC "-//W3C//DTD SVG 1.1//EN" "http://www.w3.org/Graphics/SVG/1.1/DTD/svg11.dtd">
<svg width="100%" height="100%" viewBox="0 0 128 128" version="1.1" xmlns="http://www.w3.org/2000/svg" xmlns:xlink="http://www.w3.org/1999/xlink" xml:space="preserve" xmlns:serif="http://www.serif.com/" style="fill-rule:evenodd;clip-rule:evenodd;stroke-linejoin:round;stroke-miterlimit:2;">
    <g id="SVGRepo_iconCarrier" transform="matrix(0.540001,0,0,0.540001,12,10.306)">
        <g transform="matrix(1,0,0,1,0,-14.8148)">
            <g>
                <path d="M179.011,45.78L76.293,45.78L76.293,41.718C76.293,35.761 71.446,30.915 65.489,30.915L48.725,30.915C42.768,30.915 37.922,35.761 37.922,41.718L37.922,45.78L20.988,45.78C18.601,45.78 16.667,47.715 16.667,50.101C16.667,52.488 18.601,54.423 20.988,54.423L37.921,54.423L37.921,58.483C37.921,64.44 42.767,69.286 48.724,69.286L65.489,69.286C71.446,69.286 76.292,64.44 76.292,58.483L76.292,54.423L179.011,54.423C181.398,54.423 183.333,52.487 183.333,50.101C183.333,47.715 181.398,45.78 179.011,45.78ZM67.65,58.483C67.65,59.674 66.681,60.644 65.489,60.644L48.725,60.644C47.533,60.644 46.564,59.674 46.564,58.483L46.564,41.718C46.564,40.527 47.533,39.557 48.725,39.557L65.489,39.557C66.681,39.557 67.65,40.527 67.65,41.718L67.65,58.483Z" style="fill-rule:nonzero;"/>
            </g>
        </g>
        <g transform="matrix(1,0,0,1,0,-14.8148)">
            <g>
                <path d="M179.012,93.911L162.079,93.911L162.079,89.848C162.079,83.891 157.232,79.045 151.275,79.045L134.511,79.045C128.554,79.045 123.707,83.891 123.707,89.848L123.707,93.911L20.988,93.911C18.601,93.911 16.667,95.846 16.667,98.232C16.667,100.619 18.601,102.554 20.988,102.554L123.707,102.554L123.707,106.613C123.707,112.57 128.553,117.416 134.51,117.416L151.275,117.416C157.232,117.416 162.078,112.57 162.078,106.613L162.078,102.554L179.012,102.554C181.398,102.554 183.333,100.618 183.333,98.232C183.333,95.846 181.399,93.911 179.012,93.911ZM153.436,106.613C153.436,107.804 152.466,108.774 151.275,108.774L134.51,108.774C133.319,108.774 132.35,107.804 132.35,106.613L132.35,89.848C132.35,88.657 133.319,87.688 134.51,87.688L151.275,87.688C152.466,87.688 153.436,88.657 153.436,89.848L153.436,106.613Z" style="fill-rule:nonzero;"/>
            </g>
        </g>
        <g transform="matrix(1,0,0,1,0,-14.8148)">
            <g>
                <path d="M179.012,145.577L106.651,145.577L106.651,141.517C106.651,135.56 101.805,130.714 95.848,130.714L79.083,130.714C73.126,130.714 68.28,135.56 68.28,141.517L68.28,145.577L20.988,145.577C18.601,145.577 16.667,147.513 16.667,149.899C16.667,152.285 18.601,154.22 20.988,154.22L68.279,154.22L68.279,158.282C68.279,164.239 73.126,169.085 79.083,169.085L95.847,169.085C101.804,169.085 106.651,164.239 106.651,158.282L106.651,154.22L179.012,154.22C181.398,154.22 183.333,152.285 183.333,149.899C183.333,147.512 181.399,145.577 179.012,145.577ZM98.008,158.282C98.008,159.473 97.039,160.443 95.847,160.443L79.083,160.443C77.891,160.443 76.922,159.473 76.922,158.282L76.922,141.517C76.922,140.326 77.891,139.356 79.083,139.356L95.847,139.356C97.039,139.356 98.008,140.326 98.008,141.517L98.008,158.282Z" style="fill-rule:nonzero;"/>
            </g>
        </g>
    </g>
</svg>
