<?xml version="1.0" encoding="UTF-8" standalone="no"?><!DOCTYPE svg PUBLIC "-//W3C//DTD SVG 1.1//EN" "http://www.w3.org/Graphics/SVG/1.1/DTD/svg11.dtd"><svg width="227px" height="91px" version="1.1" xmlns="http://www.w3.org/2000/svg" xmlns:xlink="http://www.w3.org/1999/xlink" xml:space="preserve" xmlns:serif="http://www.serif.com/" style="fill-rule:evenodd;clip-rule:evenodd;stroke-linejoin:round;stroke-miterlimit:2;"><g transform="matrix(2,0,0,2,3.934,47.7884)"><path d="M0,21.182L0,8.938L-1.967,8.938L-1.967,6.968L0,6.968L0,6.351C0,4.348 0.674,2.587 1.994,1.446C3.113,0.501 4.582,0 6.576,0C8.227,0 9.75,0.358 10.838,0.946L10.838,21.182L8.252,21.182L8.252,2.383C7.811,2.149 7.135,2.002 6.137,2.002C3.467,2.002 2.557,3.966 2.557,6.235L2.557,6.968L5.873,6.968L5.873,8.938L2.557,8.938L2.557,21.182L0,21.182Z" style="fill:rgb(128,128,128);fill-rule:nonzero;"/></g><g transform="matrix(2,0,0,2,54.1138,68.5878)"><path d="M0,7.378C0,8.608 0.061,9.814 0.205,10.783L-2.117,10.783L-2.322,8.991L-2.41,8.991C-3.201,10.107 -4.729,11.104 -6.756,11.104C-9.633,11.104 -11.102,9.08 -11.102,7.024C-11.102,3.583 -8.049,1.705 -2.557,1.735L-2.557,1.442C-2.557,0.297 -2.881,-1.847 -5.783,-1.814C-7.139,-1.814 -8.52,-1.436 -9.516,-0.759L-10.104,-2.492C-8.93,-3.226 -7.199,-3.726 -5.402,-3.726C-1.061,-3.726 0,-0.759 0,2.058L0,7.378ZM-2.498,3.526C-5.318,3.466 -8.52,3.966 -8.52,6.731C-8.52,8.433 -7.404,9.195 -6.111,9.195C-4.229,9.195 -3.025,8.024 -2.617,6.817C-2.527,6.524 -2.498,6.232 -2.498,5.997L-2.498,3.526Z" style="fill:rgb(128,128,128);fill-rule:nonzero;"/></g><g transform="matrix(2,0,0,2,61.7622,67.0038)"><path d="M0,8.96C0.793,9.431 2.145,9.961 3.438,9.961C5.287,9.961 6.166,9.049 6.166,7.847C6.166,6.616 5.434,5.969 3.557,5.257C0.969,4.318 -0.234,2.939 -0.234,1.233C-0.234,-1.054 1.648,-2.936 4.67,-2.936C6.107,-2.936 7.375,-2.551 8.135,-2.053L7.52,-0.173C6.963,-0.526 5.934,-1.022 4.611,-1.022C3.084,-1.022 2.264,-0.144 2.264,0.913C2.264,2.085 3.084,2.615 4.936,3.349C7.375,4.258 8.666,5.491 8.666,7.609C8.666,10.135 6.699,11.896 3.379,11.896C1.822,11.896 0.383,11.485 -0.617,10.898L0,8.96Z" style="fill:rgb(128,128,128);fill-rule:nonzero;"/></g><g transform="matrix(2,0,0,2,85.7388,90.1534)"><path d="M0,-20.855L2.588,-20.855L2.588,-11.954L2.646,-11.954C3.057,-12.685 3.701,-13.364 4.494,-13.803C5.258,-14.242 6.17,-14.509 7.141,-14.509C9.047,-14.509 12.105,-13.332 12.105,-8.461L12.105,0L9.518,0L9.518,-8.167C9.518,-10.457 8.664,-12.364 6.229,-12.364C4.553,-12.364 3.262,-11.19 2.764,-9.814C2.615,-9.429 2.588,-9.046 2.588,-8.578L2.588,0L0,0L0,-20.855Z" style="fill:rgb(128,128,128);fill-rule:nonzero;"/></g><g transform="matrix(2,0,0,2,124.348,90.7944)"><path d="M0,-17.947L0,-14.535L3.705,-14.535L3.705,-12.565L0,-12.565L0,-4.901C0,-3.139 0.504,-2.138 1.943,-2.138C2.648,-2.138 3.057,-2.2 3.439,-2.318L3.561,-0.35C3.057,-0.175 2.27,0 1.27,0C0.064,0 -0.91,-0.41 -1.527,-1.084C-2.232,-1.878 -2.521,-3.139 -2.521,-4.812L-2.521,-12.565L-4.729,-12.565L-4.729,-14.535L-2.521,-14.535L-2.521,-17.182L0,-17.947Z" style="fill:rgb(128,128,128);fill-rule:nonzero;"/></g><g transform="matrix(2,0,0,2,140.11,75.057)"><path d="M0,0.909C0.057,4.406 2.258,5.846 4.875,5.846C6.727,5.846 7.867,5.521 8.811,5.111L9.279,6.962C8.369,7.372 6.783,7.87 4.523,7.87C0.143,7.87 -2.469,4.964 -2.469,0.671C-2.469,-3.613 0.057,-6.961 4.201,-6.961C8.869,-6.961 10.07,-2.909 10.07,-0.297C10.07,0.23 10.043,0.614 9.982,0.909L0,0.909ZM7.576,-0.942C7.605,-2.557 6.902,-5.11 3.996,-5.11C1.346,-5.11 0.232,-2.734 0.029,-0.942L7.576,-0.942Z" style="fill:rgb(128,128,128);fill-rule:nonzero;"/></g><g transform="matrix(2,0,0,2,166.664,80.6958)"><path d="M0,-5.053C0,-6.725 -0.029,-8.163 -0.119,-9.485L2.15,-9.485L2.268,-6.667L2.355,-6.667C3,-8.575 4.588,-9.782 6.318,-9.782C6.58,-9.782 6.785,-9.748 7.023,-9.72L7.023,-7.286C6.758,-7.341 6.494,-7.341 6.143,-7.341C4.32,-7.341 3.029,-5.992 2.678,-4.054C2.619,-3.702 2.59,-3.263 2.59,-2.851L2.59,4.729L0,4.729L0,-5.053Z" style="fill:rgb(128,128,128);fill-rule:nonzero;"/></g><g transform="matrix(2,0,0,2,186.122,81.872)"><path d="M0,-6.229C0,-7.724 -0.059,-8.901 -0.117,-10.074L2.15,-10.074L2.268,-7.754L2.355,-7.754C3.148,-9.105 4.469,-10.369 6.844,-10.369C8.754,-10.369 10.223,-9.192 10.838,-7.519L10.896,-7.519C11.338,-8.339 11.924,-8.928 12.51,-9.369C13.367,-10.015 14.279,-10.369 15.627,-10.369C17.537,-10.369 20.324,-9.133 20.324,-4.203L20.324,4.14L17.801,4.14L17.801,-3.88C17.801,-6.641 16.771,-8.251 14.717,-8.251C13.225,-8.251 12.1,-7.167 11.627,-5.935C11.516,-5.554 11.422,-5.113 11.422,-4.643L11.422,4.14L8.9,4.14L8.9,-4.377C8.9,-6.641 7.9,-8.251 5.936,-8.251C4.35,-8.251 3.148,-6.96 2.734,-5.672C2.592,-5.318 2.529,-4.849 2.529,-4.409L2.529,4.14L0,4.14L0,-6.229Z" style="fill:rgb(128,128,128);fill-rule:nonzero;"/></g><g transform="matrix(2,0,0,2,115.957,5.6938)"><g><path d="M0,15.866C-0.281,15.896 -0.566,15.912 -0.855,15.912C-5.338,15.912 -9.002,12.278 -9.002,7.79C-9.002,4.468 -7,1.622 -4.154,0.357L-4.932,-2.548C-12.641,-1.434 -18.381,2.762 -18.381,7.783C-18.381,13.655 -10.543,18.414 -0.871,18.414C-0.352,18.414 0.162,18.394 0.67,18.367L0,15.866Z" style="fill:rgb(128,128,128);fill-rule:nonzero;"/><g transform="matrix(1,0,0,1,-0.871,18.1151)"><path d="M0,-20.962C-0.521,-20.962 -1.031,-20.942 -1.541,-20.915L-0.871,-18.411C-0.58,-18.442 -0.285,-18.461 0.014,-18.461C4.49,-18.461 8.129,-14.826 8.129,-10.325C8.129,-7.005 6.135,-4.157 3.287,-2.897L4.063,0C11.77,-1.115 17.508,-5.312 17.508,-10.332C17.508,-16.203 9.668,-20.962 0,-20.962" style="fill:rgb(128,128,128);fill-rule:nonzero;"/></g></g></g><g transform="matrix(0.96,0,0,-0.96,101.438,33.6699)"><g transform="matrix(1.18371,0,0,-1.18371,-125.187,40.1514)"><circle cx="117" cy="23" r="11" style="fill:rgb(128,128,128);"/></g></g></svg>