<?xml version="1.0" encoding="UTF-8" standalone="no"?><!DOCTYPE svg PUBLIC "-//W3C//DTD SVG 1.1//EN" "http://www.w3.org/Graphics/SVG/1.1/DTD/svg11.dtd"><svg width="200px" height="200px" version="1.1" xmlns="http://www.w3.org/2000/svg" xmlns:xlink="http://www.w3.org/1999/xlink" xml:space="preserve" xmlns:serif="http://www.serif.com/" style="fill-rule:evenodd;clip-rule:evenodd;stroke-linejoin:round;stroke-miterlimit:2;"><g transform="matrix(0.1,0,0,-0.1,0,200)"><path d="M785,1764C580,1732 394,1598 301,1414C250,1312 236,1247 236,1120C236,1021 240,994 264,925C310,792 380,692 484,613C676,468 932,440 1151,541L1221,573L1389,407C1592,204 1583,207 1688,313C1739,364 1760,393 1760,410C1760,429 1719,476 1591,604L1421,773L1451,833C1628,1183 1448,1618 1078,1735C998,1760 854,1774 785,1764ZM961,1570C1157,1533 1314,1359 1327,1163C1337,1022 1295,907 1200,809C1020,625 738,624 554,808C380,983 379,1255 552,1436C662,1551 808,1599 961,1570Z" style="fill-rule:nonzero;"/></g></svg>